<?xml version="1.0" encoding="UTF-8" standalone="no"?><svg xmlns="http://www.w3.org/2000/svg" xmlns:xlink="http://www.w3.org/1999/xlink" contentScriptType="application/ecmascript" contentStyleType="text/css" height="219px" preserveAspectRatio="none" style="width:783px;height:219px;" version="1.1" viewBox="0 0 783 219" width="783px" zoomAndPan="magnify"><defs><filter height="300%" id="fiyg83xlyxycz" width="300%" x="-1" y="-1"><feGaussianBlur result="blurOut" stdDeviation="2.0"/><feColorMatrix in="blurOut" result="blurOut2" type="matrix" values="0 0 0 0 0 0 0 0 0 0 0 0 0 0 0 0 0 0 .4 0"/><feOffset dx="4.0" dy="4.0" in="blurOut2" result="blurOut3"/><feBlend in="SourceGraphic" in2="blurOut3" mode="normal"/></filter></defs><g><text fill="#000000" font-family="sans-serif" font-size="18" lengthAdjust="spacingAndGlyphs" textLength="267" x="249" y="16.708">TERN Species Determination</text><!--MD5=[857bd2c9d13a75e14ee6a76b3ec3c8e1]
class dwc:Identification--><a href="http://rs.tdwg.org/dwc/terms/Identification" target="_top" title="http://rs.tdwg.org/dwc/terms/Identification" xlink:actuate="onRequest" xlink:href="http://rs.tdwg.org/dwc/terms/Identification" xlink:show="new" xlink:title="http://rs.tdwg.org/dwc/terms/Identification" xlink:type="simple"><rect codeLine="6" fill="#FEFECE" filter="url(#fiyg83xlyxycz)" height="48" id="dwc:Identification" style="stroke: #A80036; stroke-width: 1.5;" width="137" x="10" y="27.9531"/><ellipse cx="25" cy="43.9531" fill="#ADD1B2" rx="11" ry="11" style="stroke: #A80036; stroke-width: 1.0;"/><path d="M27.3438,39.625 C26.4063,39.1875 25.8125,39.0469 24.9375,39.0469 C22.3125,39.0469 20.3125,41.125 20.3125,43.8438 L20.3125,44.9688 C20.3125,47.5469 22.4219,49.4375 25.3125,49.4375 C26.5313,49.4375 27.6875,49.1406 28.4375,48.5938 C29.0156,48.1875 29.3438,47.7344 29.3438,47.3438 C29.3438,46.8906 28.9531,46.5 28.4844,46.5 C28.2656,46.5 28.0625,46.5781 27.875,46.7656 C27.4219,47.25 27.4219,47.25 27.2344,47.3438 C26.8125,47.6094 26.125,47.7344 25.3594,47.7344 C23.3125,47.7344 22.0156,46.6406 22.0156,44.9375 L22.0156,43.8438 C22.0156,42.0625 23.2656,40.75 25,40.75 C25.5781,40.75 26.1875,40.9063 26.6563,41.1563 C27.1406,41.4375 27.3125,41.6563 27.4063,42.0625 C27.4688,42.4688 27.5,42.5938 27.6406,42.7188 C27.7813,42.8594 28.0156,42.9688 28.2344,42.9688 C28.5,42.9688 28.7656,42.8281 28.9375,42.6094 C29.0469,42.4531 29.0781,42.2656 29.0781,41.8438 L29.0781,40.4219 C29.0781,39.9844 29.0625,39.8594 28.9688,39.7031 C28.8125,39.4375 28.5313,39.2969 28.2344,39.2969 C27.9375,39.2969 27.7344,39.3906 27.5156,39.7031 L27.3438,39.625 Z "/><text fill="#000000" font-family="sans-serif" font-size="12" lengthAdjust="spacingAndGlyphs" textLength="105" x="39" y="48.1074">dwc:Identification</text><line style="stroke: #A80036; stroke-width: 1.5;" x1="11" x2="146" y1="59.9531" y2="59.9531"/><line style="stroke: #A80036; stroke-width: 1.5;" x1="11" x2="146" y1="67.9531" y2="67.9531"/></a><!--MD5=[69c885a6d1436bc41ddc92563c906663]
class :StateIdentification--><a href="https://w3id.org/tern/ontologies/sd/StateIdentification" target="_top" title="https://w3id.org/tern/ontologies/sd/StateIdentification" xlink:actuate="onRequest" xlink:href="https://w3id.org/tern/ontologies/sd/StateIdentification" xlink:show="new" xlink:title="https://w3id.org/tern/ontologies/sd/StateIdentification" xlink:type="simple"><rect codeLine="8" fill="#FEFECE" filter="url(#fiyg83xlyxycz)" height="48" id=":StateIdentification" style="stroke: #A80036; stroke-width: 1.5;" width="143" x="7" y="135.9531"/><ellipse cx="22" cy="151.9531" fill="#ADD1B2" rx="11" ry="11" style="stroke: #A80036; stroke-width: 1.0;"/><path d="M24.3438,147.625 C23.4063,147.1875 22.8125,147.0469 21.9375,147.0469 C19.3125,147.0469 17.3125,149.125 17.3125,151.8438 L17.3125,152.9688 C17.3125,155.5469 19.4219,157.4375 22.3125,157.4375 C23.5313,157.4375 24.6875,157.1406 25.4375,156.5938 C26.0156,156.1875 26.3438,155.7344 26.3438,155.3438 C26.3438,154.8906 25.9531,154.5 25.4844,154.5 C25.2656,154.5 25.0625,154.5781 24.875,154.7656 C24.4219,155.25 24.4219,155.25 24.2344,155.3438 C23.8125,155.6094 23.125,155.7344 22.3594,155.7344 C20.3125,155.7344 19.0156,154.6406 19.0156,152.9375 L19.0156,151.8438 C19.0156,150.0625 20.2656,148.75 22,148.75 C22.5781,148.75 23.1875,148.9063 23.6563,149.1563 C24.1406,149.4375 24.3125,149.6563 24.4063,150.0625 C24.4688,150.4688 24.5,150.5938 24.6406,150.7188 C24.7813,150.8594 25.0156,150.9688 25.2344,150.9688 C25.5,150.9688 25.7656,150.8281 25.9375,150.6094 C26.0469,150.4531 26.0781,150.2656 26.0781,149.8438 L26.0781,148.4219 C26.0781,147.9844 26.0625,147.8594 25.9688,147.7031 C25.8125,147.4375 25.5313,147.2969 25.2344,147.2969 C24.9375,147.2969 24.7344,147.3906 24.5156,147.7031 L24.3438,147.625 Z "/><text fill="#000000" font-family="sans-serif" font-size="12" lengthAdjust="spacingAndGlyphs" textLength="111" x="36" y="156.1074">:StateIdentification</text><line style="stroke: #A80036; stroke-width: 1.5;" x1="8" x2="149" y1="167.9531" y2="167.9531"/><line style="stroke: #A80036; stroke-width: 1.5;" x1="8" x2="149" y1="175.9531" y2="175.9531"/></a><!--MD5=[1461467d095b4781dd2d9690687c945b]
class dwc:Taxon--><a href="http://rs.tdwg.org/dwc/terms/Taxon" target="_top" title="http://rs.tdwg.org/dwc/terms/Taxon" xlink:actuate="onRequest" xlink:href="http://rs.tdwg.org/dwc/terms/Taxon" xlink:show="new" xlink:title="http://rs.tdwg.org/dwc/terms/Taxon" xlink:type="simple"><rect codeLine="14" fill="#FEFECE" filter="url(#fiyg83xlyxycz)" height="48" id="dwc:Taxon" style="stroke: #A80036; stroke-width: 1.5;" width="97" x="269" y="27.9531"/><ellipse cx="284" cy="43.9531" fill="#ADD1B2" rx="11" ry="11" style="stroke: #A80036; stroke-width: 1.0;"/><path d="M286.3438,39.625 C285.4063,39.1875 284.8125,39.0469 283.9375,39.0469 C281.3125,39.0469 279.3125,41.125 279.3125,43.8438 L279.3125,44.9688 C279.3125,47.5469 281.4219,49.4375 284.3125,49.4375 C285.5313,49.4375 286.6875,49.1406 287.4375,48.5938 C288.0156,48.1875 288.3438,47.7344 288.3438,47.3438 C288.3438,46.8906 287.9531,46.5 287.4844,46.5 C287.2656,46.5 287.0625,46.5781 286.875,46.7656 C286.4219,47.25 286.4219,47.25 286.2344,47.3438 C285.8125,47.6094 285.125,47.7344 284.3594,47.7344 C282.3125,47.7344 281.0156,46.6406 281.0156,44.9375 L281.0156,43.8438 C281.0156,42.0625 282.2656,40.75 284,40.75 C284.5781,40.75 285.1875,40.9063 285.6563,41.1563 C286.1406,41.4375 286.3125,41.6563 286.4063,42.0625 C286.4688,42.4688 286.5,42.5938 286.6406,42.7188 C286.7813,42.8594 287.0156,42.9688 287.2344,42.9688 C287.5,42.9688 287.7656,42.8281 287.9375,42.6094 C288.0469,42.4531 288.0781,42.2656 288.0781,41.8438 L288.0781,40.4219 C288.0781,39.9844 288.0625,39.8594 287.9688,39.7031 C287.8125,39.4375 287.5313,39.2969 287.2344,39.2969 C286.9375,39.2969 286.7344,39.3906 286.5156,39.7031 L286.3438,39.625 Z "/><text fill="#000000" font-family="sans-serif" font-size="12" lengthAdjust="spacingAndGlyphs" textLength="65" x="298" y="48.1074">dwc:Taxon</text><line style="stroke: #A80036; stroke-width: 1.5;" x1="270" x2="365" y1="59.9531" y2="59.9531"/><line style="stroke: #A80036; stroke-width: 1.5;" x1="270" x2="365" y1="67.9531" y2="67.9531"/></a><!--MD5=[eef2174fd1c5fb733421456275a30b74]
class :NationalTaxon--><a href="https://w3id.org/tern/ontologies/sd/NationalTaxon" target="_top" title="https://w3id.org/tern/ontologies/sd/NationalTaxon" xlink:actuate="onRequest" xlink:href="https://w3id.org/tern/ontologies/sd/NationalTaxon" xlink:show="new" xlink:title="https://w3id.org/tern/ontologies/sd/NationalTaxon" xlink:type="simple"><rect codeLine="12" fill="#FEFECE" filter="url(#fiyg83xlyxycz)" height="48" id=":NationalTaxon" style="stroke: #A80036; stroke-width: 1.5;" width="119" x="185" y="135.9531"/><ellipse cx="200" cy="151.9531" fill="#ADD1B2" rx="11" ry="11" style="stroke: #A80036; stroke-width: 1.0;"/><path d="M202.3438,147.625 C201.4063,147.1875 200.8125,147.0469 199.9375,147.0469 C197.3125,147.0469 195.3125,149.125 195.3125,151.8438 L195.3125,152.9688 C195.3125,155.5469 197.4219,157.4375 200.3125,157.4375 C201.5313,157.4375 202.6875,157.1406 203.4375,156.5938 C204.0156,156.1875 204.3438,155.7344 204.3438,155.3438 C204.3438,154.8906 203.9531,154.5 203.4844,154.5 C203.2656,154.5 203.0625,154.5781 202.875,154.7656 C202.4219,155.25 202.4219,155.25 202.2344,155.3438 C201.8125,155.6094 201.125,155.7344 200.3594,155.7344 C198.3125,155.7344 197.0156,154.6406 197.0156,152.9375 L197.0156,151.8438 C197.0156,150.0625 198.2656,148.75 200,148.75 C200.5781,148.75 201.1875,148.9063 201.6563,149.1563 C202.1406,149.4375 202.3125,149.6563 202.4063,150.0625 C202.4688,150.4688 202.5,150.5938 202.6406,150.7188 C202.7813,150.8594 203.0156,150.9688 203.2344,150.9688 C203.5,150.9688 203.7656,150.8281 203.9375,150.6094 C204.0469,150.4531 204.0781,150.2656 204.0781,149.8438 L204.0781,148.4219 C204.0781,147.9844 204.0625,147.8594 203.9688,147.7031 C203.8125,147.4375 203.5313,147.2969 203.2344,147.2969 C202.9375,147.2969 202.7344,147.3906 202.5156,147.7031 L202.3438,147.625 Z "/><text fill="#000000" font-family="sans-serif" font-size="12" lengthAdjust="spacingAndGlyphs" textLength="87" x="214" y="156.1074">:NationalTaxon</text><line style="stroke: #A80036; stroke-width: 1.5;" x1="186" x2="303" y1="167.9531" y2="167.9531"/><line style="stroke: #A80036; stroke-width: 1.5;" x1="186" x2="303" y1="175.9531" y2="175.9531"/></a><!--MD5=[e3c5be3a8b6ed05d7d07d8d7aef38d75]
class :Text--><rect fill="#FEFECE" filter="url(#fiyg83xlyxycz)" height="48" id=":Text" style="stroke: #A80036; stroke-width: 1.5;" width="62" x="513.5" y="27.9531"/><ellipse cx="528.5" cy="43.9531" fill="#ADD1B2" rx="11" ry="11" style="stroke: #A80036; stroke-width: 1.0;"/><path d="M530.8438,39.625 C529.9063,39.1875 529.3125,39.0469 528.4375,39.0469 C525.8125,39.0469 523.8125,41.125 523.8125,43.8438 L523.8125,44.9688 C523.8125,47.5469 525.9219,49.4375 528.8125,49.4375 C530.0313,49.4375 531.1875,49.1406 531.9375,48.5938 C532.5156,48.1875 532.8438,47.7344 532.8438,47.3438 C532.8438,46.8906 532.4531,46.5 531.9844,46.5 C531.7656,46.5 531.5625,46.5781 531.375,46.7656 C530.9219,47.25 530.9219,47.25 530.7344,47.3438 C530.3125,47.6094 529.625,47.7344 528.8594,47.7344 C526.8125,47.7344 525.5156,46.6406 525.5156,44.9375 L525.5156,43.8438 C525.5156,42.0625 526.7656,40.75 528.5,40.75 C529.0781,40.75 529.6875,40.9063 530.1563,41.1563 C530.6406,41.4375 530.8125,41.6563 530.9063,42.0625 C530.9688,42.4688 531,42.5938 531.1406,42.7188 C531.2813,42.8594 531.5156,42.9688 531.7344,42.9688 C532,42.9688 532.2656,42.8281 532.4375,42.6094 C532.5469,42.4531 532.5781,42.2656 532.5781,41.8438 L532.5781,40.4219 C532.5781,39.9844 532.5625,39.8594 532.4688,39.7031 C532.3125,39.4375 532.0313,39.2969 531.7344,39.2969 C531.4375,39.2969 531.2344,39.3906 531.0156,39.7031 L530.8438,39.625 Z "/><text fill="#000000" font-family="sans-serif" font-size="12" lengthAdjust="spacingAndGlyphs" textLength="30" x="542.5" y="48.1074">:Text</text><line style="stroke: #A80036; stroke-width: 1.5;" x1="514.5" x2="574.5" y1="59.9531" y2="59.9531"/><line style="stroke: #A80036; stroke-width: 1.5;" x1="514.5" x2="574.5" y1="67.9531" y2="67.9531"/><!--MD5=[a145b7c03aa1955a563fd88ccbff6fc2]
class :FieldTaxonName--><a href="https://w3id.org/tern/ontologies/sd/FieldTaxonName" target="_top" title="https://w3id.org/tern/ontologies/sd/FieldTaxonName" xlink:actuate="onRequest" xlink:href="https://w3id.org/tern/ontologies/sd/FieldTaxonName" xlink:show="new" xlink:title="https://w3id.org/tern/ontologies/sd/FieldTaxonName" xlink:type="simple"><rect codeLine="16" fill="#FEFECE" filter="url(#fiyg83xlyxycz)" height="48" id=":FieldTaxonName" style="stroke: #A80036; stroke-width: 1.5;" width="135" x="477" y="135.9531"/><ellipse cx="492" cy="151.9531" fill="#ADD1B2" rx="11" ry="11" style="stroke: #A80036; stroke-width: 1.0;"/><path d="M494.3438,147.625 C493.4063,147.1875 492.8125,147.0469 491.9375,147.0469 C489.3125,147.0469 487.3125,149.125 487.3125,151.8438 L487.3125,152.9688 C487.3125,155.5469 489.4219,157.4375 492.3125,157.4375 C493.5313,157.4375 494.6875,157.1406 495.4375,156.5938 C496.0156,156.1875 496.3438,155.7344 496.3438,155.3438 C496.3438,154.8906 495.9531,154.5 495.4844,154.5 C495.2656,154.5 495.0625,154.5781 494.875,154.7656 C494.4219,155.25 494.4219,155.25 494.2344,155.3438 C493.8125,155.6094 493.125,155.7344 492.3594,155.7344 C490.3125,155.7344 489.0156,154.6406 489.0156,152.9375 L489.0156,151.8438 C489.0156,150.0625 490.2656,148.75 492,148.75 C492.5781,148.75 493.1875,148.9063 493.6563,149.1563 C494.1406,149.4375 494.3125,149.6563 494.4063,150.0625 C494.4688,150.4688 494.5,150.5938 494.6406,150.7188 C494.7813,150.8594 495.0156,150.9688 495.2344,150.9688 C495.5,150.9688 495.7656,150.8281 495.9375,150.6094 C496.0469,150.4531 496.0781,150.2656 496.0781,149.8438 L496.0781,148.4219 C496.0781,147.9844 496.0625,147.8594 495.9688,147.7031 C495.8125,147.4375 495.5313,147.2969 495.2344,147.2969 C494.9375,147.2969 494.7344,147.3906 494.5156,147.7031 L494.3438,147.625 Z "/><text fill="#000000" font-family="sans-serif" font-size="12" lengthAdjust="spacingAndGlyphs" textLength="103" x="506" y="156.1074">:FieldTaxonName</text><line style="stroke: #A80036; stroke-width: 1.5;" x1="478" x2="611" y1="167.9531" y2="167.9531"/><line style="stroke: #A80036; stroke-width: 1.5;" x1="478" x2="611" y1="175.9531" y2="175.9531"/></a><!--MD5=[800936535029953d6f9ef7039158e8ed]
class :StateTaxon--><a href="https://w3id.org/tern/ontologies/sd/StateTaxon" target="_top" title="https://w3id.org/tern/ontologies/sd/StateTaxon" xlink:actuate="onRequest" xlink:href="https://w3id.org/tern/ontologies/sd/StateTaxon" xlink:show="new" xlink:title="https://w3id.org/tern/ontologies/sd/StateTaxon" xlink:type="simple"><rect codeLine="18" fill="#FEFECE" filter="url(#fiyg83xlyxycz)" height="48" id=":StateTaxon" style="stroke: #A80036; stroke-width: 1.5;" width="103" x="339" y="135.9531"/><ellipse cx="354" cy="151.9531" fill="#ADD1B2" rx="11" ry="11" style="stroke: #A80036; stroke-width: 1.0;"/><path d="M356.3438,147.625 C355.4063,147.1875 354.8125,147.0469 353.9375,147.0469 C351.3125,147.0469 349.3125,149.125 349.3125,151.8438 L349.3125,152.9688 C349.3125,155.5469 351.4219,157.4375 354.3125,157.4375 C355.5313,157.4375 356.6875,157.1406 357.4375,156.5938 C358.0156,156.1875 358.3438,155.7344 358.3438,155.3438 C358.3438,154.8906 357.9531,154.5 357.4844,154.5 C357.2656,154.5 357.0625,154.5781 356.875,154.7656 C356.4219,155.25 356.4219,155.25 356.2344,155.3438 C355.8125,155.6094 355.125,155.7344 354.3594,155.7344 C352.3125,155.7344 351.0156,154.6406 351.0156,152.9375 L351.0156,151.8438 C351.0156,150.0625 352.2656,148.75 354,148.75 C354.5781,148.75 355.1875,148.9063 355.6563,149.1563 C356.1406,149.4375 356.3125,149.6563 356.4063,150.0625 C356.4688,150.4688 356.5,150.5938 356.6406,150.7188 C356.7813,150.8594 357.0156,150.9688 357.2344,150.9688 C357.5,150.9688 357.7656,150.8281 357.9375,150.6094 C358.0469,150.4531 358.0781,150.2656 358.0781,149.8438 L358.0781,148.4219 C358.0781,147.9844 358.0625,147.8594 357.9688,147.7031 C357.8125,147.4375 357.5313,147.2969 357.2344,147.2969 C356.9375,147.2969 356.7344,147.3906 356.5156,147.7031 L356.3438,147.625 Z "/><text fill="#000000" font-family="sans-serif" font-size="12" lengthAdjust="spacingAndGlyphs" textLength="71" x="368" y="156.1074">:StateTaxon</text><line style="stroke: #A80036; stroke-width: 1.5;" x1="340" x2="441" y1="167.9531" y2="167.9531"/><line style="stroke: #A80036; stroke-width: 1.5;" x1="340" x2="441" y1="175.9531" y2="175.9531"/></a><!--MD5=[0a1f6e91377d174bc21968f7c84fa586]
class dwc:MaterialSample--><a href="http://rs.tdwg.org/dwc/terms/MaterialSample" target="_top" title="http://rs.tdwg.org/dwc/terms/MaterialSample" xlink:actuate="onRequest" xlink:href="http://rs.tdwg.org/dwc/terms/MaterialSample" xlink:show="new" xlink:title="http://rs.tdwg.org/dwc/terms/MaterialSample" xlink:type="simple"><rect codeLine="10" fill="#FEFECE" filter="url(#fiyg83xlyxycz)" height="48" id="dwc:MaterialSample" style="stroke: #A80036; stroke-width: 1.5;" width="153" x="611" y="27.9531"/><ellipse cx="626" cy="43.9531" fill="#ADD1B2" rx="11" ry="11" style="stroke: #A80036; stroke-width: 1.0;"/><path d="M628.3438,39.625 C627.4063,39.1875 626.8125,39.0469 625.9375,39.0469 C623.3125,39.0469 621.3125,41.125 621.3125,43.8438 L621.3125,44.9688 C621.3125,47.5469 623.4219,49.4375 626.3125,49.4375 C627.5313,49.4375 628.6875,49.1406 629.4375,48.5938 C630.0156,48.1875 630.3438,47.7344 630.3438,47.3438 C630.3438,46.8906 629.9531,46.5 629.4844,46.5 C629.2656,46.5 629.0625,46.5781 628.875,46.7656 C628.4219,47.25 628.4219,47.25 628.2344,47.3438 C627.8125,47.6094 627.125,47.7344 626.3594,47.7344 C624.3125,47.7344 623.0156,46.6406 623.0156,44.9375 L623.0156,43.8438 C623.0156,42.0625 624.2656,40.75 626,40.75 C626.5781,40.75 627.1875,40.9063 627.6563,41.1563 C628.1406,41.4375 628.3125,41.6563 628.4063,42.0625 C628.4688,42.4688 628.5,42.5938 628.6406,42.7188 C628.7813,42.8594 629.0156,42.9688 629.2344,42.9688 C629.5,42.9688 629.7656,42.8281 629.9375,42.6094 C630.0469,42.4531 630.0781,42.2656 630.0781,41.8438 L630.0781,40.4219 C630.0781,39.9844 630.0625,39.8594 629.9688,39.7031 C629.8125,39.4375 629.5313,39.2969 629.2344,39.2969 C628.9375,39.2969 628.7344,39.3906 628.5156,39.7031 L628.3438,39.625 Z "/><text fill="#000000" font-family="sans-serif" font-size="12" lengthAdjust="spacingAndGlyphs" textLength="121" x="640" y="48.1074">dwc:MaterialSample</text><line style="stroke: #A80036; stroke-width: 1.5;" x1="612" x2="763" y1="59.9531" y2="59.9531"/><line style="stroke: #A80036; stroke-width: 1.5;" x1="612" x2="763" y1="67.9531" y2="67.9531"/></a><!--MD5=[1d747d9d3b7f6e725264e02b27d7cf2b]
reverse link dwc:Identification to :StateIdentification--><path codeLine="2" d="M78.5,95.9767 C78.5,109.5323 78.5,123.9912 78.5,135.6315 " fill="none" id="dwc:Identification-backto-:StateIdentification" style="stroke: #A80036; stroke-width: 1.0;"/><polygon fill="none" points="71.5001,95.9536,78.5,75.9531,85.5001,95.9535,71.5001,95.9536" style="stroke: #A80036; stroke-width: 1.0;"/><!--MD5=[8bcb5fc3f68c764adcef87a495fafded]
reverse link dwc:Taxon to :NationalTaxon--><path codeLine="3" d="M290.19,92.6088 C280.208,107.1029 269.246,123.0212 260.561,135.6315 " fill="none" id="dwc:Taxon-backto-:NationalTaxon" style="stroke: #A80036; stroke-width: 1.0;"/><polygon fill="none" points="284.551,88.455,301.66,75.9531,296.081,96.3956,284.551,88.455" style="stroke: #A80036; stroke-width: 1.0;"/><!--MD5=[a0b4e932bb0e43b141a8f071eedcaa62]
reverse link :Text to :FieldTaxonName--><path codeLine="4" d="M544.5,95.9767 C544.5,109.5323 544.5,123.9912 544.5,135.6315 " fill="none" id=":Text-backto-:FieldTaxonName" style="stroke: #A80036; stroke-width: 1.0;"/><polygon fill="none" points="537.5,95.9536,544.5,75.9531,551.5,95.9535,537.5,95.9536" style="stroke: #A80036; stroke-width: 1.0;"/><!--MD5=[3cf15b8fe7b20498d96584aa0e9b647d]
reverse link dwc:Taxon to :StateTaxon--><path codeLine="5" d="M344.81,92.6088 C354.792,107.1029 365.754,123.0212 374.439,135.6315 " fill="none" id="dwc:Taxon-backto-:StateTaxon" style="stroke: #A80036; stroke-width: 1.0;"/><polygon fill="none" points="338.919,96.3956,333.34,75.9531,350.449,88.455,338.919,96.3956" style="stroke: #A80036; stroke-width: 1.0;"/><text fill="#888888" font-family="sans-serif" font-size="10" lengthAdjust="spacingAndGlyphs" textLength="74" x="229" y="206.2354">Generated by</text><a href="https://github.com/edmondchuc/ontogram" target="_top" title="https://github.com/edmondchuc/ontogram" xlink:actuate="onRequest" xlink:href="https://github.com/edmondchuc/ontogram" xlink:show="new" xlink:title="https://github.com/edmondchuc/ontogram" xlink:type="simple"><text fill="#0000FF" font-family="sans-serif" font-size="10" lengthAdjust="spacingAndGlyphs" text-decoration="underline" textLength="230" x="306" y="206.2354">https://github.com/edmondchuc/ontogram</text></a><!--MD5=[f9b9b498eeb36e224657f25a465a087a]
@startuml
title TERN Species Determination
"dwc:Identification" <|- - ":StateIdentification"
"dwc:Taxon" <|- - ":NationalTaxon"
":Text" <|- - ":FieldTaxonName"
"dwc:Taxon" <|- - ":StateTaxon"
Class "dwc:Identification" [[http://rs.tdwg.org/dwc/terms/Identification]] {
}
Class ":StateIdentification" [[https://w3id.org/tern/ontologies/sd/StateIdentification]] {
}
Class "dwc:MaterialSample" [[http://rs.tdwg.org/dwc/terms/MaterialSample]] {
}
Class ":NationalTaxon" [[https://w3id.org/tern/ontologies/sd/NationalTaxon]] {
}
Class "dwc:Taxon" [[http://rs.tdwg.org/dwc/terms/Taxon]] {
}
Class ":FieldTaxonName" [[https://w3id.org/tern/ontologies/sd/FieldTaxonName]] {
}
Class ":StateTaxon" [[https://w3id.org/tern/ontologies/sd/StateTaxon]] {
}
center footer Generated by [[https://github.com/edmondchuc/ontogram https://github.com/edmondchuc/ontogram]]
@enduml

PlantUML version 1.2020.17beta5(Unknown compile time)
(GPL source distribution)
Java Runtime: Java(TM) SE Runtime Environment
JVM: Java HotSpot(TM) 64-Bit Server VM
Default Encoding: UTF-8
Language: en
Country: US
--></g></svg>